# xmcd
#
# Track frame offsets:
#	160
#	16556
#	30320
#	45836
#	62196
#	80005
#	95483
#	117072
#	134651
#	154729
#	170611
#	185955
#	213387
#
# Disc length: 3111 seconds
#
# Revision: 3
# Processed by: cddbd v1.5.2PL0 Copyright (c) Steve Scherf et al.
# Submitted via: EasyCDDAExtractor 16.0.9.1
#
DISCID=a80c250d
DTITLE=Александр Буйнов - Острова любви
DYEAR=1997
DGENRE=Blues
TTITLE0=название дорожки 1
TTITLE1=название дорожки 2
TTITLE2=название дорожки 3
TTITLE3=название дорожки 4
TTITLE4=название дорожки 5
TTITLE5=название дорожки 6
TTITLE6=Песня о Родине
TTITLE7=название дорожки 8
TTITLE8=Для тебя
TTITLE9=название дорожки 10
TTITLE10=название дорожки 11
TTITLE11=название дорожки 12
TTITLE12=название дорожки 13
EXTD=
EXTT0=
EXTT1=
EXTT2=
EXTT3=
EXTT4=
EXTT5=
EXTT6=
EXTT7=
EXTT8=
EXTT9=
EXTT10=
EXTT11=
EXTT12=
PLAYORDER=
